<svg xmlns="http://www.w3.org/2000/svg" viewBox="0 0 500 500"><g id="freepik--background-complete--inject-3"><rect x="416.78" y="398.49" width="33.12" height="0.25" style="fill:#ebebeb"></rect><rect x="322.53" y="401.21" width="8.69" height="0.25" style="fill:#ebebeb"></rect><rect x="396.59" y="389.21" width="19.19" height="0.25" style="fill:#ebebeb"></rect><rect x="52.46" y="390.89" width="43.19" height="0.25" style="fill:#ebebeb"></rect><rect x="104.56" y="390.89" width="6.33" height="0.25" style="fill:#ebebeb"></rect><rect x="131.47" y="395.11" width="93.68" height="0.25" style="fill:#ebebeb"></rect><path d="M237,337.8H43.92a5.71,5.71,0,0,1-5.71-5.71V60.66A5.71,5.71,0,0,1,43.92,55H237a5.71,5.71,0,0,1,5.71,5.71V332.09A5.71,5.71,0,0,1,237,337.8ZM43.92,55.2a5.47,5.47,0,0,0-5.46,5.46V332.09a5.47,5.47,0,0,0,5.46,5.46H237a5.47,5.47,0,0,0,5.46-5.46V60.66A5.47,5.47,0,0,0,237,55.2Z" style="fill:#ebebeb"></path><path d="M453.31,337.8H260.21a5.72,5.72,0,0,1-5.71-5.71V60.66A5.72,5.72,0,0,1,260.21,55h193.1A5.71,5.71,0,0,1,459,60.66V332.09A5.71,5.71,0,0,1,453.31,337.8ZM260.21,55.2a5.47,5.47,0,0,0-5.46,5.46V332.09a5.47,5.47,0,0,0,5.46,5.46h193.1a5.47,5.47,0,0,0,5.46-5.46V60.66a5.47,5.47,0,0,0-5.46-5.46Z" style="fill:#ebebeb"></path><rect y="382.4" width="500" height="0.25" style="fill:#ebebeb"></rect><polygon points="312.14 382.14 86.49 382.14 84.63 375.76 314 375.76 312.14 382.14" style="fill:#e0e0e0"></polygon><rect x="74.29" y="289.08" width="122.88" height="42.42" style="fill:#ebebeb"></rect><rect x="74.29" y="331.49" width="122.88" height="42.42" style="fill:#ebebeb"></rect><rect x="133.58" y="232.02" width="4.29" height="122.88" transform="translate(429.19 157.73) rotate(90)" style="fill:#e0e0e0"></rect><rect x="133.58" y="274.1" width="4.29" height="122.88" transform="translate(471.27 199.81) rotate(90)" style="fill:#e0e0e0"></rect><path d="M72.15,287.18v88.58H199.32V287.18ZM195,371.47H76.44V333.74H195Zm0-42H76.44V291.71H195Z" style="fill:#f5f5f5"></path><rect x="201.46" y="289.08" width="122.88" height="42.42" style="fill:#ebebeb"></rect><rect x="201.46" y="331.49" width="122.88" height="42.42" style="fill:#ebebeb"></rect><rect x="260.76" y="232.02" width="4.29" height="122.88" transform="translate(556.36 30.55) rotate(90)" style="fill:#e0e0e0"></rect><rect x="260.76" y="274.1" width="4.29" height="122.88" transform="translate(598.44 72.64) rotate(90)" style="fill:#e0e0e0"></rect><path d="M199.32,287.18v88.58H326.49V287.18ZM322.2,371.47H203.61V333.74H322.2Zm0-42H203.61V291.71H322.2Z" style="fill:#f5f5f5"></path><path d="M266.59,314.26a3.69,3.69,0,1,1-3.69-3.69A3.69,3.69,0,0,1,266.59,314.26Z" style="fill:#e0e0e0"></path><path d="M266.59,313.22a3.69,3.69,0,1,1-3.69-3.69A3.69,3.69,0,0,1,266.59,313.22Z" style="fill:#fafafa"></path><path d="M266.59,353.22a3.69,3.69,0,1,1-3.69-3.69A3.69,3.69,0,0,1,266.59,353.22Z" style="fill:#e0e0e0"></path><path d="M266.59,352.18a3.69,3.69,0,1,1-3.69-3.69A3.69,3.69,0,0,1,266.59,352.18Z" style="fill:#fafafa"></path><path d="M139.42,314.26a3.69,3.69,0,1,1-3.69-3.69A3.69,3.69,0,0,1,139.42,314.26Z" style="fill:#e0e0e0"></path><path d="M139.42,313.22a3.69,3.69,0,1,1-3.69-3.69A3.69,3.69,0,0,1,139.42,313.22Z" style="fill:#fafafa"></path><path d="M139.42,353.22a3.69,3.69,0,1,1-3.69-3.69A3.69,3.69,0,0,1,139.42,353.22Z" style="fill:#e0e0e0"></path><path d="M139.42,352.18a3.69,3.69,0,1,1-3.69-3.69A3.69,3.69,0,0,1,139.42,352.18Z" style="fill:#fafafa"></path><path d="M371.5,273.08c2.22-2.47,5.42-5.16,8.78-5.69,10.31-1.65,9.16,19.51,9.06,24.92a.75.75,0,0,0,1.5,0c.12-6.38,1.25-26.39-9.44-26.52-4.17-.05-8.3,3.27-11,6.23-.64.72.42,1.79,1.06,1.06Z" style="fill:#e0e0e0"></path><path d="M403.58,260.08c-2.13.33-3.8,2.81-4.79,4.47-4.74,8-5.05,18.78-5.36,27.76,0,1,1.47,1,1.5,0,.29-8.61.56-18.72,4.87-26.49.82-1.48,2.25-4,4.18-4.29.95-.15.54-1.6-.4-1.45Z" style="fill:#e0e0e0"></path><path d="M371,272.55s-9.29-15.35-16.1-1.51a23.44,23.44,0,0,0-2.13,6.95c2.85-1.25,8.93-3.55,9-.43.07,2.51-3.48,6.66-6.22,9.47a6.23,6.23,0,0,0-1.53,6,48.55,48.55,0,0,0,3.61,9.25s2-.78,5-2.2a6.6,6.6,0,0,0,3.63-4.73c.42-2.26,1.15-4.64,2.36-5.35s2.19.61,2.86,2.15a2.13,2.13,0,0,0,3.21.89,46.25,46.25,0,0,0,4.3-3.47,2.1,2.1,0,0,0,.24-2.85c-1.47-1.89-2.85-4.14-2.29-5.44s3.07-1.27,5.5-1a3.66,3.66,0,0,0,4.08-3.21v0C388.27,262.17,371,272.55,371,272.55Z" style="fill:#ebebeb"></path><path d="M407.11,256.78s9.28-15.35,16.1-1.51a23.44,23.44,0,0,1,2.13,7c-2.85-1.25-8.93-3.55-9-.43-.07,2.51,3.48,6.65,6.22,9.46a6.25,6.25,0,0,1,1.53,6,48.55,48.55,0,0,1-3.61,9.25s-2-.78-5-2.21a6.56,6.56,0,0,1-3.63-4.72c-.42-2.26-1.15-4.65-2.36-5.35s-2.19.61-2.86,2.14a2.12,2.12,0,0,1-3.21.9,49.77,49.77,0,0,1-4.3-3.47,2.1,2.1,0,0,1-.24-2.85c1.47-1.89,2.85-4.14,2.28-5.44s-3.06-1.27-5.49-1a3.66,3.66,0,0,1-4.08-3.21v0C389.81,246.4,407.11,256.78,407.11,256.78Z" style="fill:#e6e6e6"></path><path d="M354.16,365c0,6.76,1.06,11.14,2.85,13.94a7.4,7.4,0,0,0,6.26,3.3h9.79a7.4,7.4,0,0,0,6.26-3.3c1.78-2.8,2.84-7.18,2.84-13.94,0-9.8-4.27-17.65-5.67-23.92-.5-2.26,1.17-9.17,1.17-9.17h-19s1.68,6.91,1.17,9.17C358.44,347.37,354.16,355.22,354.16,365Z" style="fill:#e6e6e6"></path><path d="M368.16,325.34c0-8.51,13.35-5,16.71-18.19,1.28-5-9.58-16.33-9.58-16.33h33.85s-10.86,11.33-9.58,16.33c3.36,13.21,16.71,9.68,16.71,18.19,0,9.38-18.83,28.9-19.74,50.88-.08,2,3.55,6,3.55,6H384.36s3.62-4.07,3.54-6C387,354.24,368.16,334.72,368.16,325.34Z" style="fill:#f0f0f0"></path><path d="M419.79,347.46c-2-4.13,2.1-18.2,2.1-18.2H407.23s4.06,14.07,2.1,18.2c-1.39,2.92-4.55,4.79-4.55,8.25v20.77c0,5.38,4.4,5.78,9.78,5.78s9.78-.4,9.78-5.78V355.71C424.34,352.25,421.18,350.39,419.79,347.46Z" style="fill:#e6e6e6"></path><path d="M399,286.67s9.64-7.27,11.36,2.88a14.24,14.24,0,0,1,0,4.79c-1.68-1.45-5.35-4.31-6.08-2.4-.58,1.53,1,4.93,2.24,7.31a3.77,3.77,0,0,1-.24,4.08,30,30,0,0,1-4.44,4.85s-1.23-1-3-2.55a4.4,4.4,0,0,1-1.48-3.78c.19-1.49.2-3.13-.48-3.86s-1.63-.14-2.41.65a1.63,1.63,0,0,1-2.39-.21,33.58,33.58,0,0,1-2.2-3.15,1.28,1.28,0,0,1,.44-1.82c1.41-.82,2.83-1.88,2.73-2.82s-1.83-1.5-3.56-1.89a2.61,2.61,0,0,1-2.11-2.95v0C389.41,276.17,399,286.67,399,286.67Z" style="fill:#e0e0e0"></path></g><g id="freepik--Shadow--inject-3"><ellipse id="freepik--path--inject-3" cx="245.18" cy="412.39" rx="193.89" ry="11.32" style="fill:#f5f5f5"></ellipse></g><g id="freepik--character-3--inject-3"><rect x="376.69" y="156.73" width="4.4" height="12.82" transform="translate(757.78 326.28) rotate(180)" style="fill:#263238"></rect><path d="M364.52,149.45a7,7,0,0,1,7.08-6.25c.44,0,3.41,0,3.95,0a8.28,8.28,0,0,1,1.4.08c1.44.2,2.66.33,3.81.4s2.41-.2,3.91-.4c.53-.07,4.77-.08,5.14-.08,3.67,0,6.18,2.3,5.77,6.25l0,.2c-.45,4.35-4.34,9-8.72,9.61a38.6,38.6,0,0,1-8,.42,37.17,37.17,0,0,1-7.94-.42c-4.23-.58-7-5.26-6.36-9.61Z" style="fill:#263238"></path><path d="M394.65,162.55c-.58,0-3.29-.05-4.14,0a10.14,10.14,0,0,0-2.14.35,52.18,52.18,0,0,1-10.2,1.87,45.68,45.68,0,0,1-9.74-1.87,9.26,9.26,0,0,0-2.7-.36c-.61,0-3.18,0-3.86,0a6.14,6.14,0,0,0-6.28,5.65l-6.06,40H386.9a17.1,17.1,0,0,0,9.51-2.86q1.75-18.57,3.5-37.13C400.27,164.39,398.06,162.42,394.65,162.55Z" style="fill:#263238"></path><path d="M370.85,159.26a37.1,37.1,0,0,0,12,0c4.38-.58,8.27-5.26,8.72-9.61l0-.2c.45-4.35-2.64-6.74-6.91-6.17a36.57,36.57,0,0,1-11.72,0,7.15,7.15,0,0,0-8.43,6.17l0,.2C363.87,154,366.62,158.68,370.85,159.26Z" style="fill:#fff;opacity:0.2"></path><path d="M388.37,162.9c-9.72,2.59-14.86,2.59-23.94,0-4.35-1.24-8.15.7-8.84,5.29l-6.06,40H386.9a17.39,17.39,0,0,0,5.33-.84q1.83-19.58,3.68-39.15C396.34,163.6,393,161.66,388.37,162.9Z" style="fill:#fff;opacity:0.2"></path><polygon points="328.39 188.41 321.5 189.07 310.95 186.59 307.12 192.9 309.58 194.16 313.02 193.1 317.77 194.04 322.05 193.37 330.18 193.57 328.39 188.41" style="fill:#ffc3bd"></polygon><path d="M325.6,188.15l1.64,5.89s11.88,1.61,16.55-.43,1.14-36.52-3.35-36.14-2,19.45-2,25.44C338.42,187.49,325.6,188.15,325.6,188.15Z" style="fill:#1BB1DC"></path><path d="M325.6,188.15l1.64,5.89s11.88,1.61,16.55-.43,1.14-36.52-3.35-36.14-2,19.45-2,25.44C338.42,187.49,325.6,188.15,325.6,188.15Z" style="fill:#fff;opacity:0.7000000000000001"></path><path d="M339.55,157.52c-4.5,6.43,5.85,16.54,6.06,50.66H379c1-9.21,4.42-45.34-.39-52.16C373.08,148.2,343.84,151.38,339.55,157.52Z" style="fill:#1BB1DC"></path><path d="M350.35,151.42s-8,3-.76,10.08l3.86-1.58L359,161.5S373.07,146,350.35,151.42Z" style="fill:#1BB1DC"></path><path d="M350.35,151.42s-8,3-.76,10.08l3.86-1.58L359,161.5S373.07,146,350.35,151.42Z" style="fill:#fff;opacity:0.7000000000000001"></path><path d="M351.46,158.65c-2-1.61-4.24-4.07-2.31-5.68a58.33,58.33,0,0,1,12.11-1.55c1.13.74.5,2.68-5.53,7.29A3.44,3.44,0,0,1,351.46,158.65Z" style="fill:#ffc3bd"></path><path d="M349.41,148.46l6.7-7.27c.64,5.58,3.61,10.15,4.21,10.34l-.73,2.55c-8.12,9.13-10,.37-10,.37C351.57,152.79,349.41,148.46,349.41,148.46Z" style="fill:#ffc3bd"></path><path d="M353.43,144.1l3.12-.31s-.13,9.36-6.54,10.16c1.19-1.89-.6-5.49-.6-5.49Z" style="fill:#263238;opacity:0.2"></path><path d="M355.2,133.18c1.45,6.62,2.64,10.4.35,14.78a8.81,8.81,0,0,1-15.59.18c-3-5.38-4.91-15.29.64-19.9a8.91,8.91,0,0,1,14.6,4.94Z" style="fill:#ffc3bd"></path><path d="M346,138.14c.15.53,0,1-.36,1.13s-.74-.23-.89-.76,0-1,.36-1.12S345.84,137.62,346,138.14Z" style="fill:#263238"></path><path d="M340.08,140.05c.16.53,0,1-.35,1.12s-.74-.23-.9-.76,0-1,.37-1.12S339.93,139.52,340.08,140.05Z" style="fill:#263238"></path><path d="M347.26,135.63a.61.61,0,0,0,.14-.07.32.32,0,0,0,0-.45h0a3.16,3.16,0,0,0-2.89-.52.32.32,0,0,0-.19.41h0a.31.31,0,0,0,.41.19h0a2.49,2.49,0,0,1,2.25.4A.29.29,0,0,0,347.26,135.63Z" style="fill:#263238"></path><path d="M337,138.81a.28.28,0,0,0,.18-.23,2.72,2.72,0,0,1,1.34-2,.34.34,0,0,0,.09-.46.36.36,0,0,0-.36-.13h0a3.33,3.33,0,0,0-1.69,2.44.32.32,0,0,0,.26.37h0A.22.22,0,0,0,337,138.81Z" style="fill:#263238"></path><path d="M346.45,146.48a6.52,6.52,0,0,1-.9.18.17.17,0,0,1-.2-.15h0a.19.19,0,0,1,.16-.21,4.92,4.92,0,0,0,3.74-2.41.17.17,0,0,1,.24-.08.18.18,0,0,1,.09.24A5.13,5.13,0,0,1,346.45,146.48Z" style="fill:#263238"></path><path d="M342.14,139.71a21.05,21.05,0,0,1-1.2,5.32,3.13,3.13,0,0,0,2.63-.31Z" style="fill:#ed893e"></path><path d="M351.6,123.28c-21.32-4.1-15.08,13.27-15.08,13.27s.16-3,2.94-3a9.1,9.1,0,0,0,5.22-2.18,8.32,8.32,0,0,1-3.74,2.57,11.17,11.17,0,0,0,9.48-5.11,10.24,10.24,0,0,1,.19,1.48c0,2.44,2,3.76,3,7.09s4.95,0,4.95,0C364.08,123.19,351.6,123.28,351.6,123.28Z" style="fill:#263238"></path><path d="M359.2,137.88a6,6,0,0,1-1.68,4.05c-1.38,1.41-3,.35-3.33-1.52-.33-1.69,0-4.44,1.77-5.14S359.22,136,359.2,137.88Z" style="fill:#ffc3bd"></path><path d="M352,124.24s-4.51-5.5-7.63-4S350,122,352,124.24Z" style="fill:#263238"></path><polygon points="351.61 189.56 344.72 190.22 334.17 186.68 329.29 191.94 331.74 193.19 336.24 193.19 341 195.18 345.27 194.52 353.4 194.72 351.61 189.56" style="fill:#ffc3bd"></polygon><path d="M376.92,155.46c-2.21-1.51-4.58,0-7,13.76-2.85,16.39-4.74,17.13-21.12,20.07l1.78,5.89s14,1.73,20.75-2.67S382.9,159.54,376.92,155.46Z" style="fill:#1BB1DC"></path><path d="M376.92,155.46c-2.21-1.51-4.58,0-7,13.76-2.85,16.39-4.74,17.13-21.12,20.07l1.78,5.89s14,1.73,20.75-2.67S382.9,159.54,376.92,155.46Z" style="fill:#fff;opacity:0.7000000000000001"></path><path d="M357,196.83H265.61a17.24,17.24,0,0,0,2.45,4.48H357a2.24,2.24,0,1,0,0-4.48Z" style="fill:#263238"></path><path d="M357,196.83H265.61a17.24,17.24,0,0,0,2.45,4.48H357a2.24,2.24,0,1,0,0-4.48Z" style="fill:#fff;opacity:0.6000000000000001"></path><path d="M281.81,208.18H354.9v-6.87H268.06A17.18,17.18,0,0,0,281.81,208.18Z" style="fill:#263238"></path><path d="M281.81,208.18H354.9v-6.87H268.06A17.18,17.18,0,0,0,281.81,208.18Z" style="fill:#fff;opacity:0.4"></path><path d="M342.91,193.92H289.66a1.46,1.46,0,0,0,0,2.91h53.25a1.46,1.46,0,1,0,0-2.91Z" style="fill:#263238"></path><path d="M342.91,193.92H289.66a1.46,1.46,0,0,0,0,2.91h53.25a1.46,1.46,0,1,0,0-2.91Z" style="fill:#fff;opacity:0.30000000000000004"></path><path d="M290.45,195.94h18.2a.69.69,0,0,0,.65-.92l-10-28.51a1.94,1.94,0,0,0-1.85-1.31h-18.2a.68.68,0,0,0-.65.91l10,28.52A2,2,0,0,0,290.45,195.94Z" style="fill:#263238"></path><path d="M290.45,195.94h18.2a.69.69,0,0,0,.65-.92l-10-28.51a1.94,1.94,0,0,0-1.85-1.31h-18.2a.68.68,0,0,0-.65.91l10,28.52A2,2,0,0,0,290.45,195.94Z" style="fill:#fff;opacity:0.5"></path><path d="M289.57,195.94h18.21a.7.7,0,0,0,.65-.92l-10-28.51a1.94,1.94,0,0,0-1.85-1.31h-18.2a.69.69,0,0,0-.65.91l10,28.52A2,2,0,0,0,289.57,195.94Z" style="fill:#263238"></path><path d="M289.57,195.94h18.21a.7.7,0,0,0,.65-.92l-10-28.51a1.94,1.94,0,0,0-1.85-1.31h-18.2a.69.69,0,0,0-.65.91l10,28.52A2,2,0,0,0,289.57,195.94Z" style="fill:#fff;opacity:0.7000000000000001"></path><path d="M291.61,180.57c.23,1.09,1,2,1.69,2s1.07-.89.84-2-1-2-1.69-2S291.38,179.47,291.61,180.57Z" style="fill:#fff"></path><path d="M311,196.83a1.46,1.46,0,0,1,0-2.91h31.92a1.46,1.46,0,1,1,0,2.91Z" style="fill:#fff;opacity:0.2"></path><rect x="275" y="148.87" width="3.65" height="7.95" style="fill:#1BB1DC"></rect><rect x="318.72" y="148.87" width="3.65" height="7.95" style="fill:#1BB1DC"></rect><path d="M300.45,133.5l-.43,0c.86-12.77-1-16.92-2.78-18.15a2.12,2.12,0,0,0-1.94-.34l-.17-.39a2.48,2.48,0,0,1,2.35.38C299.32,116.27,301.32,120.53,300.45,133.5Z" style="fill:#1BB1DC"></path><path d="M298,132.21c-.42-10.86,1.46-14.92,3.12-16.4a2.62,2.62,0,0,1,2-.81l-.06.43a2.17,2.17,0,0,0-1.64.72c-1.57,1.44-3.36,5.39-2.95,16Z" style="fill:#1BB1DC"></path><path d="M299.85,132.21l-.42,0c.44-6.52-.37-10.4-2.33-11.22-2.57-1.08-6.4,3.21-6.44,3.26l-.32-.29c.16-.18,4.07-4.56,6.92-3.37C299.44,121.47,300.32,125.39,299.85,132.21Z" style="fill:#1BB1DC"></path><path d="M298.77,132.63c0-4,.83-6.49,2.48-7.35,1.85-1,4,.46,4.09.53l-.25.35s-2-1.36-3.64-.5-2.25,3.13-2.25,7Z" style="fill:#1BB1DC"></path><g style="opacity:0.2"><path d="M300.45,133.5l-.43,0c.86-12.77-1-16.92-2.78-18.15a2.12,2.12,0,0,0-1.94-.34l-.17-.39a2.48,2.48,0,0,1,2.35.38C299.32,116.27,301.32,120.53,300.45,133.5Z"></path><path d="M298,132.21c-.42-10.86,1.46-14.92,3.12-16.4a2.62,2.62,0,0,1,2-.81l-.06.43a2.17,2.17,0,0,0-1.64.72c-1.57,1.44-3.36,5.39-2.95,16Z"></path><path d="M299.85,132.21l-.42,0c.44-6.52-.37-10.4-2.33-11.22-2.57-1.08-6.4,3.21-6.44,3.26l-.32-.29c.16-.18,4.07-4.56,6.92-3.37C299.44,121.47,300.32,125.39,299.85,132.21Z"></path><path d="M298.77,132.63c0-4,.83-6.49,2.48-7.35,1.85-1,4,.46,4.09.53l-.25.35s-2-1.36-3.64-.5-2.25,3.13-2.25,7Z"></path></g><path d="M289.08,131.48,290.92,142a5,5,0,0,0,4.94,4.14h7.32a5,5,0,0,0,4.94-4.14L310,131.48Z" style="fill:#263238"></path><path d="M289.08,131.48,290.92,142a5,5,0,0,0,4.94,4.14h7.32a5,5,0,0,0,4.94-4.14L310,131.48Z" style="fill:#fff;opacity:0.30000000000000004"></path><path d="M296.06,114.7s4.35-7.3-3.3-7.4a11.6,11.6,0,0,0-3.25.44c1,.68,2.6,1.92,1.77,2.23s-4-.3-5.46-.63a24.33,24.33,0,0,0-6.47,5.83,42.82,42.82,0,0,0,4.94,4c.76-.76,1.91-1.71,2.57-1.34s1.37,2.42,1.8,3.87a15.73,15.73,0,0,0,4.54,1.4c0-1.16,0-3,.54-3.35s2.59,1.63,3.73,2.8C303.31,120,296.06,114.7,296.06,114.7Z" style="fill:#1BB1DC"></path><path d="M296.06,114.7s4.35-7.3-3.3-7.4a11.6,11.6,0,0,0-3.25.44c1,.68,2.6,1.92,1.77,2.23s-4-.3-5.46-.63a24.33,24.33,0,0,0-6.47,5.83,42.82,42.82,0,0,0,4.94,4c.76-.76,1.91-1.71,2.57-1.34s1.37,2.42,1.8,3.87a15.73,15.73,0,0,0,4.54,1.4c0-1.16,0-3,.54-3.35s2.59,1.63,3.73,2.8C303.31,120,296.06,114.7,296.06,114.7Z" style="fill:#fff;opacity:0.1"></path><path d="M296.06,114.7s4.35-7.3-3.3-7.4a11.6,11.6,0,0,0-3.25.44c1,.68,2.6,1.92,1.77,2.23s-4-.3-5.46-.63a24.33,24.33,0,0,0-6.47,5.83C287.68,111.63,296.06,114.7,296.06,114.7Z" style="fill:#fff;opacity:0.30000000000000004"></path><path d="M305.11,119.64c.8-.23,1.8,1.38,2.32,2.34a17.28,17.28,0,0,0,4.59-3c-.37-.82-.79-1.94-.52-2.37s1.72-.09,2.76.23a31.69,31.69,0,0,0,2.63-3.14,21.08,21.08,0,0,0-2.51-1.74c-1.5.17-3.62.3-4.14-.22s.63-1,1.46-1.15a16,16,0,0,0-4.38-1.23c-.2.68-.64,1.73-1.45,1.73s-1.66-.91-2.22-1.58c-6.26,1.35-1.29,5.83-1.29,5.83s-5.39,6.4,1,7.25C303.71,121.52,304.35,119.86,305.11,119.64Z" style="fill:#1BB1DC"></path><path d="M305.11,119.64c.8-.23,1.8,1.38,2.32,2.34a17.28,17.28,0,0,0,4.59-3c-.37-.82-.79-1.94-.52-2.37s1.72-.09,2.76.23a31.69,31.69,0,0,0,2.63-3.14,21.08,21.08,0,0,0-2.51-1.74c-1.5.17-3.62.3-4.14-.22s.63-1,1.46-1.15a16,16,0,0,0-4.38-1.23c-.2.68-.64,1.73-1.45,1.73s-1.66-.91-2.22-1.58c-6.26,1.35-1.29,5.83-1.29,5.83s-5.39,6.4,1,7.25C303.71,121.52,304.35,119.86,305.11,119.64Z" style="fill:#fff;opacity:0.2"></path><path d="M310.24,111.77c-.55-.55.63-1,1.46-1.15a16,16,0,0,0-4.38-1.23c-.2.68-.64,1.73-1.45,1.73s-1.66-.91-2.22-1.58c-6.26,1.35-1.29,5.83-1.29,5.83s8.13-3,14.53-1.64a21.08,21.08,0,0,0-2.51-1.74C312.88,112.16,310.76,112.29,310.24,111.77Z" style="fill:#fff;opacity:0.30000000000000004"></path><path d="M314.27,125.26c-.87.47-2.54,1.23-3.21.56s.35-3.5.86-4.67a8.19,8.19,0,0,0-2.88-2.28c-6.8-3-4.49,6.76-4.49,6.76S296,127.7,301.5,133a12.39,12.39,0,0,0,1.28,1c.43-1,1.27-2.69,2.11-2.46s.52,2.4.24,3.75a16.92,16.92,0,0,0,4.52,1.16c.2-1,.58-2.21,1.19-2.18s1.5,1.41,2,2.36a23.06,23.06,0,0,0,3.84-.35A40,40,0,0,0,314.27,125.26Z" style="fill:#1BB1DC"></path><path d="M304.55,125.63S296,127.7,301.5,133a12.39,12.39,0,0,0,1.28,1c.43-1,1.27-2.69,2.11-2.46s.52,2.4.24,3.75a16.92,16.92,0,0,0,4.52,1.16c.2-1,.58-2.21,1.19-2.18s1.5,1.41,2,2.36a23.06,23.06,0,0,0,3.84-.35A20.42,20.42,0,0,0,304.55,125.63Z" style="fill:#fff;opacity:0.2"></path><path d="M291.21,123.55s-4.6-7.61-8-.75a11.85,11.85,0,0,0-1.06,3.45c1.41-.62,4.43-1.76,4.47-.22s-3.19,4.85-4.28,5.86a24.76,24.76,0,0,0,2.22,6.41,40.09,40.09,0,0,0,4.08-1.88c.13-1.23.48-3.67,1.39-4.21s1.61,1.42,1.84,2.32a24.47,24.47,0,0,0,4-3.22c-.88-1-2.09-2.6-1.73-3.42s2.87-.51,4.25-.22a7.08,7.08,0,0,0,.5-1.87C299.78,118.41,291.21,123.55,291.21,123.55Z" style="fill:#1BB1DC"></path><path d="M284.58,138.3a40.09,40.09,0,0,0,4.08-1.88c.13-1.23.48-3.67,1.39-4.21s1.61,1.42,1.84,2.32a24.47,24.47,0,0,0,4-3.22c-.88-1-2.09-2.6-1.73-3.42s2.87-.51,4.25-.22a7.08,7.08,0,0,0,.5-1.87c.85-7.39-7.72-2.25-7.72-2.25S286.14,128.28,284.58,138.3Z" style="fill:#fff;opacity:0.2"></path><rect x="270.5" y="145.23" width="56.38" height="4.49" style="fill:#1BB1DC"></rect><rect x="270.5" y="145.23" width="56.38" height="4.49" style="fill:#fff;opacity:0.30000000000000004"></rect><path d="M386.9,75.84H281.81a21.51,21.51,0,0,0-21.48,21.48v93.61a21.5,21.5,0,0,0,21.48,21.48H386.9a21.5,21.5,0,0,0,21.48-21.48V97.32A21.51,21.51,0,0,0,386.9,75.84Zm17.25,115.09a17.25,17.25,0,0,1-17.25,17.25H281.81a17.25,17.25,0,0,1-17.25-17.25V97.32a17.25,17.25,0,0,1,17.25-17.25H386.9a17.25,17.25,0,0,1,17.25,17.25Z" style="fill:#1BB1DC"></path><path d="M386.9,75.84H281.81a21.51,21.51,0,0,0-21.48,21.48v93.61a21.5,21.5,0,0,0,21.48,21.48H386.9a21.5,21.5,0,0,0,21.48-21.48V97.32A21.51,21.51,0,0,0,386.9,75.84Zm17.25,115.09a17.25,17.25,0,0,1-17.25,17.25H281.81a17.25,17.25,0,0,1-17.25-17.25V97.32a17.25,17.25,0,0,1,17.25-17.25H386.9a17.25,17.25,0,0,1,17.25,17.25Z" style="fill:#fff;opacity:0.4"></path><rect x="358.28" y="109.88" width="18.27" height="7.42" rx="2.55" style="fill:#1BB1DC"></rect><rect x="369.76" y="100.7" width="18.27" height="7.42" rx="2.55" style="fill:#1BB1DC"></rect><rect x="365.63" y="119.06" width="18.27" height="7.42" rx="2.55" style="fill:#1BB1DC"></rect><rect x="378.89" y="109.88" width="18.27" height="7.42" rx="2.55" style="fill:#1BB1DC"></rect><rect x="358.28" y="109.88" width="18.27" height="7.42" rx="2.55" style="fill:#fff;opacity:0.7000000000000001"></rect><rect x="369.76" y="100.7" width="18.27" height="7.42" rx="2.55" style="fill:#fff;opacity:0.8"></rect><rect x="365.63" y="119.06" width="18.27" height="7.42" rx="2.55" style="fill:#fff;opacity:0.8"></rect><rect x="378.89" y="109.88" width="18.27" height="7.42" rx="2.55" style="fill:#fff;opacity:0.7000000000000001"></rect><rect x="338.74" y="92.4" width="18.27" height="7.42" rx="2.55" transform="translate(695.76 192.22) rotate(180)" style="fill:#1BB1DC"></rect><rect x="331.39" y="101.58" width="18.27" height="7.42" rx="2.55" transform="translate(681.04 210.58) rotate(180)" style="fill:#1BB1DC"></rect><rect x="318.13" y="92.4" width="18.27" height="7.42" rx="2.55" transform="translate(654.52 192.22) rotate(180)" style="fill:#1BB1DC"></rect><rect x="338.74" y="92.4" width="18.27" height="7.42" rx="2.55" transform="translate(695.76 192.22) rotate(180)" style="fill:#fff;opacity:0.8"></rect><rect x="331.39" y="101.58" width="18.27" height="7.42" rx="2.55" transform="translate(681.04 210.58) rotate(180)" style="fill:#fff;opacity:0.8"></rect><rect x="318.13" y="92.4" width="18.27" height="7.42" rx="2.55" transform="translate(654.52 192.22) rotate(180)" style="fill:#fff;opacity:0.7000000000000001"></rect></g><g id="freepik--character-2--inject-3"><rect x="165.2" y="118.15" width="59.86" height="67.61" style="fill:#263238"></rect><rect x="160.4" y="185.76" width="69.45" height="5.45" style="fill:#263238"></rect><g style="opacity:0.4"><rect x="160.4" y="185.76" width="69.45" height="5.45" style="fill:#fff"></rect></g><rect x="165.2" y="118.15" width="59.86" height="67.61" style="fill:#fff;opacity:0.6000000000000001"></rect><rect x="169.43" y="122.38" width="51.41" height="59.16" style="fill:#fff;opacity:0.5"></rect><g style="opacity:0.2"><polygon points="169.43 122.38 169.43 181.53 169.79 181.53 183.93 122.38 169.43 122.38" style="fill:#fff"></polygon><polygon points="213.52 122.38 210.87 122.38 196.74 181.53 199.39 181.53 213.52 122.38" style="fill:#fff"></polygon><polygon points="207.31 122.38 196.22 122.38 182.09 181.53 193.18 181.53 207.31 122.38" style="fill:#fff"></polygon></g><path d="M130.61,172.67c-2,.14-4.59-1.49-5.84-3.61l-1-1.65c-2.89-4.72-9.23-8.1-13.6-7.78l-1.09.08-3.08.22-1.09.08c-4.37.32-5.36,4.23-2.77,9,.37.66.55,1,.9,1.66,1.11,2.13.28,4-1.75,4.15-3.5.25-5,3.49-3.62,7.31,4.44,15.75,5.66,29,4,43.42a17.16,17.16,0,0,0,11.69,4.59h35.5c1.37-18-1.22-33-8.38-51.11C138.67,175.21,134.12,172.41,130.61,172.67Z" style="fill:#1BB1DC"></path><path d="M130.61,172.67c-2,.14-4.59-1.49-5.84-3.61l-1-1.65c-2.89-4.72-9.23-8.1-13.6-7.78l-1.09.08-3.08.22-1.09.08c-4.37.32-5.36,4.23-2.77,9,.37.66.55,1,.9,1.66,1.11,2.13.28,4-1.75,4.15-3.5.25-5,3.49-3.62,7.31,4.44,15.75,5.66,29,4,43.42a17.16,17.16,0,0,0,11.69,4.59h35.5c1.37-18-1.22-33-8.38-51.11C138.67,175.21,134.12,172.41,130.61,172.67Z" style="opacity:0.1"></path><path d="M130.61,172.67c-2,.14-4.59-1.49-5.84-3.61l-1-1.65c-2.89-4.72-9.23-8.1-13.6-7.78l-1.09.08c-4.38.31-5.32,4.22-2.66,9,.37.66.55,1,.91,1.66,1.14,2.12.33,4-1.7,4.15-3.5.25-4.94,3.48-3.54,7.3,5,16.92,6.19,31,4,46.75a17.26,17.26,0,0,0,7.19,1.58h35.5c1.37-18-1.22-33-8.38-51.11C138.67,175.21,134.12,172.41,130.61,172.67Z" style="opacity:0.2"></path><path d="M154.63,190.51s-1.55,20.49,3.59,20.28,15.26-.14,15.26-.14l8.36-3.73a1.16,1.16,0,0,1,1.31.24l3.79,3.75a1.18,1.18,0,0,1-.86,2l-2.32-.06a17.44,17.44,0,0,1-10.19,1.95c1.2-.36-21.15,3.79-23.44.62C147,211.1,145.62,193,145.62,193Z" style="fill:#b55b52"></path><path d="M154.63,190.51s-1.55,20.49,3.59,20.28,15.26-.14,15.26-.14l8.36-3.73a1.16,1.16,0,0,1,1.31.24l3.79,3.75a1.18,1.18,0,0,1-.86,2l-2.32-.06a17.44,17.44,0,0,1-10.19,1.95c1.2-.36-21.15,3.79-23.44.62C147,211.1,145.62,193,145.62,193Z" style="opacity:0.1"></path><path d="M149.79,177.75c3.48-.1,7.41,4.42,5.68,16.43L145.89,196S142.78,178,149.79,177.75Z" style="fill:#263238"></path><path d="M149.79,177.75c3.48-.1,7.41,4.42,5.68,16.43L145.89,196S142.78,178,149.79,177.75Z" style="opacity:0.2"></path><path d="M114.42,178c-5.24,6.75-4.38,42.26-4,51.89a17.88,17.88,0,0,0,3,.27h30.44c2.6-34.13,13.65-44.23,9.6-50.67C149.52,173.31,120.5,170.12,114.42,178Z" style="fill:#263238"></path><path d="M139.7,182.17s7.59-4.72,4.51-7.28a59,59,0,0,0-12.12-1.55C130.85,174.16,131.75,176.44,139.7,182.17Z" style="fill:#b55b52"></path><path d="M144,170.39l-6.7-7.28c-.64,5.58-3.61,10.16-4.21,10.34l.73,2.56c8.12,9.13,10,.36,10,.36C141.79,174.72,144,170.39,144,170.39Z" style="fill:#b55b52"></path><path d="M139.93,166l-3.12-.32s.13,9.36,6.54,10.17c-1.19-1.89.6-5.49.6-5.49Z" style="fill:#263238;opacity:0.2"></path><path d="M138.16,155.11c-1.45,6.61-2.64,10.4-.35,14.77a8.8,8.8,0,0,0,15.59.18c3-5.38,4.9-15.29-.64-19.9a8.9,8.9,0,0,0-14.6,5Z" style="fill:#b55b52"></path><path d="M147.37,160.07c-.15.52,0,1,.36,1.12s.74-.23.89-.75,0-1.05-.36-1.13S147.52,159.54,147.37,160.07Z" style="fill:#263238"></path><path d="M153.28,162c-.16.52,0,1,.35,1.12s.74-.23.9-.76,0-1-.37-1.13S153.43,161.44,153.28,162Z" style="fill:#263238"></path><path d="M146.1,157.55a.27.27,0,0,1-.14-.07.31.31,0,0,1,0-.44h0a3.1,3.1,0,0,1,2.89-.52.31.31,0,0,1,.19.41h0a.32.32,0,0,1-.41.18h0a2.48,2.48,0,0,0-2.25.39A.29.29,0,0,1,146.1,157.55Z" style="fill:#263238"></path><path d="M156.4,160.74a.35.35,0,0,1-.19-.24,2.67,2.67,0,0,0-1.34-2,.33.33,0,0,1-.08-.45.32.32,0,0,1,.36-.13h0a3.3,3.3,0,0,1,1.69,2.44.32.32,0,0,1-.26.37h0A.36.36,0,0,1,156.4,160.74Z" style="fill:#263238"></path><path d="M146.91,168.4a4.49,4.49,0,0,0,.9.18.17.17,0,0,0,.2-.14h0a.18.18,0,0,0-.16-.2,5,5,0,0,1-3.74-2.41.18.18,0,0,0-.24-.09.2.2,0,0,0-.09.25A5.08,5.08,0,0,0,146.91,168.4Z" style="fill:#263238"></path><path d="M151.22,161.63a21.22,21.22,0,0,0,1.2,5.33,3.17,3.17,0,0,1-2.63-.31Z" style="fill:#a02724"></path><path d="M138.29,158.8s6.42.06,4.58-3.63c0,0,8.91,1.71,7.39-1.65,0,0,6,4.74,4.47.26,0,0,4.11,3.5,4.24,1.25s-2.12-3.68-2.12-3.68,5-4.07-2.26-4.06c0,0,1.72-6.12-6.58-1.23,0,0,1.11-6.34-5.08,0,0,0-8.38.06-6.4,2.83,0,0-5.28,1.72-2,3.57,0,0-4,3.63-1.09,5.12,0,0-3.8,5.22,1.75,4.57,0,0-2,4.83.46,3.84S138.29,158.8,138.29,158.8Z" style="fill:#263238"></path><path d="M134.16,159.8a6,6,0,0,0,1.68,4c1.38,1.42,3,.35,3.33-1.51.32-1.69,0-4.45-1.77-5.15S134.14,157.93,134.16,159.8Z" style="fill:#b55b52"></path><path d="M145,219.36c.3-2,.63-4,1-5.79l-3.19-.64L125,202.5l-6.34-14.66-2.64-5.67-2.48,1.32s0,29.34,12.39,34.67C131.19,220.41,137.81,219.7,145,219.36Z" style="opacity:0.30000000000000004"></path><path d="M124.66,189.43s3.63,18.11,15,20.15,13,2,13,2l9.17-3a1.38,1.38,0,0,1,1.51.46l2.32,3a1.37,1.37,0,0,1-1,2.21l-3.92.26a10,10,0,0,1-7.71,2.07s-18.35,2-24.74-1.67-11.46-18.72-11.46-18.72Z" style="fill:#b55b52"></path><path d="M116.55,201.18s-6.42-20.56-.37-23.83,10,11.15,11.55,16.61Z" style="fill:#263238"></path><polygon points="176.88 214.55 154.74 215.61 154.74 218.75 176.88 218.75 191.14 218.75 191.14 214.55 176.88 214.55" style="fill:#1BB1DC"></polygon><polygon points="176.88 218.75 154.74 218.75 154.74 215.61 176.88 214.55 176.88 218.75" style="fill:#fff;opacity:0.30000000000000004"></polygon><rect x="176.88" y="214.55" width="14.26" height="4.2" style="fill:#fff;opacity:0.6000000000000001"></rect><polygon points="225.56 207.92 178.78 207.92 183.5 169.46 230.28 169.46 225.56 207.92" style="fill:#1BB1DC"></polygon><polygon points="225.56 207.92 178.78 207.92 183.5 169.46 230.28 169.46 225.56 207.92" style="fill:#fff;opacity:0.30000000000000004"></polygon><polygon points="186.2 169.46 181.47 207.92 225.56 207.92 230.28 169.46 186.2 169.46" style="fill:#1BB1DC"></polygon><polygon points="186.2 169.46 181.47 207.92 225.56 207.92 230.28 169.46 186.2 169.46" style="fill:#fff;opacity:0.6000000000000001"></polygon><polygon points="210.33 218.64 200.38 218.64 199.38 202.77 207.44 202.77 210.33 218.64" style="fill:#1BB1DC"></polygon><polygon points="210.33 218.64 200.38 218.64 199.38 202.77 207.44 202.77 210.33 218.64" style="fill:#fff;opacity:0.30000000000000004"></polygon><polygon points="212.11 218.64 202.16 218.64 201.16 202.77 209.21 202.77 212.11 218.64" style="fill:#1BB1DC"></polygon><polygon points="212.11 218.64 202.16 218.64 201.16 202.77 209.21 202.77 212.11 218.64" style="fill:#fff;opacity:0.5"></polygon><polygon points="205.21 215.87 203.6 215.87 189.85 215.87 189.85 218.75 203.6 218.75 205.21 218.75 218.96 218.75 218.96 215.87 205.21 215.87" style="fill:#1BB1DC"></polygon><polygon points="205.21 215.87 203.6 215.87 189.85 215.87 189.85 218.75 203.6 218.75 205.21 218.75 218.96 218.75 218.96 215.87 205.21 215.87" style="fill:#fff;opacity:0.30000000000000004"></polygon><rect x="203.6" y="215.87" width="15.36" height="2.88" style="fill:#1BB1DC"></rect><rect x="203.6" y="215.87" width="15.36" height="2.88" style="fill:#fff;opacity:0.6000000000000001"></rect><path d="M145.7,223.24v6.87h72.72a17.22,17.22,0,0,0,13.75-6.87Z" style="fill:#263238"></path><path d="M145.7,223.24v6.87h72.72a17.22,17.22,0,0,0,13.75-6.87Z" style="fill:#fff;opacity:0.30000000000000004"></path><path d="M234.61,218.75H141.37v4.49h90.8A17,17,0,0,0,234.61,218.75Z" style="fill:#263238"></path><path d="M234.61,218.75H141.37v4.49h90.8A17,17,0,0,0,234.61,218.75Z" style="fill:#fff;opacity:0.5"></path><path d="M218.42,97.77H113.33a21.5,21.5,0,0,0-21.48,21.48v93.61a21.49,21.49,0,0,0,21.48,21.47H218.42a21.49,21.49,0,0,0,21.47-21.47V119.25A21.49,21.49,0,0,0,218.42,97.77Zm17.25,115.09a17.26,17.26,0,0,1-17.25,17.25H113.33a17.26,17.26,0,0,1-17.26-17.25V119.25A17.26,17.26,0,0,1,113.33,102H218.42a17.26,17.26,0,0,1,17.25,17.26Z" style="fill:#1BB1DC"></path><path d="M218.42,97.77H113.33a21.5,21.5,0,0,0-21.48,21.48v93.61a21.49,21.49,0,0,0,21.48,21.47H218.42a21.49,21.49,0,0,0,21.47-21.47V119.25A21.49,21.49,0,0,0,218.42,97.77Zm17.25,115.09a17.26,17.26,0,0,1-17.25,17.25H113.33a17.26,17.26,0,0,1-17.26-17.25V119.25A17.26,17.26,0,0,1,113.33,102H218.42a17.26,17.26,0,0,1,17.25,17.26Z" style="fill:#fff;opacity:0.4"></path></g><g id="freepik--Clock--inject-3"><circle cx="250.36" cy="128.97" r="27.49" transform="translate(-17.86 214.81) rotate(-45)" style="fill:#1BB1DC"></circle><circle cx="250.36" cy="128.97" r="27.49" transform="translate(-17.86 214.81) rotate(-45)" style="opacity:0.30000000000000004"></circle><circle cx="250.36" cy="127.07" r="27.49" transform="translate(69.18 341.54) rotate(-76.72)" style="fill:#1BB1DC"></circle><circle cx="250.36" cy="127.07" r="23.29" transform="translate(69.18 341.54) rotate(-76.72)" style="fill:#fff;opacity:0.9"></circle><path d="M249.41,110.68c0,5.15-.17,10.34,0,15.49.06,1.65.82,2.11,2,3.31l5.45,5.45a1,1,0,0,0,1.35-1.35l-5.07-5.06a16.51,16.51,0,0,1-2.09-2.09c.64,1,.24-.13.24-1V110.68a1,1,0,0,0-1.9,0Z" style="fill:#263238"></path></g><g id="freepik--character-1--inject-3"><path d="M293.93,408.73h0a2.46,2.46,0,0,1-2.46-2.23l-.79-8.24V329.84h6.49v68.42l-.79,8.24A2.46,2.46,0,0,1,293.93,408.73Z" style="fill:#263238"></path><path d="M293.93,408.73h0a2.46,2.46,0,0,1-2.46-2.23l-.79-8.24V329.84h6.49v68.42l-.79,8.24A2.46,2.46,0,0,1,293.93,408.73Z" style="fill:#fff;opacity:0.30000000000000004"></path><rect x="290.68" y="337.57" width="6.49" height="7.97" style="opacity:0.1"></rect><path d="M299.47,399.4v-2.57a1.83,1.83,0,0,0-1.82-1.82H290.2a1.83,1.83,0,0,0-1.82,1.82v2.57l-18.31,5a5.12,5.12,0,0,0-3.76,4.93h55.23a5.12,5.12,0,0,0-3.76-4.93Z" style="fill:#263238"></path><path d="M299.47,399.4v-2.57a1.83,1.83,0,0,0-1.82-1.82H290.2a1.83,1.83,0,0,0-1.82,1.82v2.57l-18.31,5a5.12,5.12,0,0,0-3.76,4.93h55.23a5.12,5.12,0,0,0-3.76-4.93Z" style="fill:#fff;opacity:0.2"></path><path d="M299.47,399.34v-2.51a2.13,2.13,0,0,0,0-.25h-11a2.13,2.13,0,0,0,0,.25v2.51Z" style="opacity:0.1"></path><path d="M323.32,263c-12.2.43-22.75,10.79-24,23l-4.55,43.33a6.32,6.32,0,0,0,6.4,7.15h36.8a8.15,8.15,0,0,0,7.91-7.15l4.61-43.86c1.33-12.66-8.08-22.87-20.89-22.42Z" style="fill:#263238"></path><path d="M323.32,263c-12.2.43-22.75,10.79-24,23l-4.55,43.33a6.32,6.32,0,0,0,6.4,7.15h36.8a8.15,8.15,0,0,0,7.91-7.15l4.61-43.86c1.33-12.66-8.08-22.87-20.89-22.42Z" style="fill:#fff;opacity:0.2"></path><path d="M344.21,285.45c1.33-12.66-8.09-22.87-20.89-22.42-12.2.43-22.75,10.79-24,23l-4.55,43.33a6.32,6.32,0,0,0,6.4,7.15h30.55a8.15,8.15,0,0,0,7.91-7.15Z" style="fill:#263238"></path><path d="M242.69,329.49a93.82,93.82,0,0,1,22.43-3.35c7.8-.21,37,0,43.89,0a93.64,93.64,0,0,1,25,3.38c5.14,1.42,3.55,9.47-1.09,9.56-.41,0-88.57,0-88.9,0C239.2,339.29,237.43,330.94,242.69,329.49Z" style="fill:#263238"></path><path d="M331.66,338.88a85.19,85.19,0,0,0-45.31,0c-5.6,1.55-8-7.84-2.38-9.39a94.17,94.17,0,0,1,50.08,0c5.59,1.55,3.22,10.94-2.39,9.39Z" style="fill:#263238"></path><g style="opacity:0.2"><path d="M331.66,338.88a85.19,85.19,0,0,0-45.31,0c-5.6,1.55-8-7.84-2.38-9.39a94.17,94.17,0,0,1,50.08,0c5.59,1.55,3.22,10.94-2.39,9.39Z" style="fill:#fff"></path></g><polygon points="231.58 361.44 225.34 379.65 220.1 378.15 224.34 358.95 231.58 361.44" style="fill:#b97964"></polygon><path d="M220.2,376.75l6.44,1.95a.61.61,0,0,1,.46.62l-.24,6.4a1,1,0,0,1-1.05,1,.78.78,0,0,1-.22,0c-2.67-.75-5-1.52-8.36-2.38-3.94-1-3.06-.3-7.71-1.44-2.8-.7-2.48-4-1.26-3.85,5.6.73,7.58-.75,10.18-2.15A2.54,2.54,0,0,1,220.2,376.75Z" style="fill:#263238"></path><polygon points="228.18 371.37 221.96 369.77 224.34 358.95 231.58 361.44 228.18 371.37" style="opacity:0.1"></polygon><polygon points="232.7 366.31 230.96 369.67 220.98 366.31 220.98 362.44 232.7 366.31" style="fill:#1BB1DC"></polygon><polygon points="232.7 366.31 230.96 369.67 220.98 366.31 220.98 362.44 232.7 366.31" style="fill:#fff;opacity:0.30000000000000004"></polygon><polygon points="271.74 383.76 273.82 399.88 267.96 400.03 263.72 384.49 271.74 383.76" style="fill:#b97964"></polygon><path d="M267.88,399.14l6.69,0a.61.61,0,0,1,.6.48l1.38,6.26a1,1,0,0,1-.78,1.24l-.21,0c-2.78-.05-5.24-.21-8.69-.22-4.07,0-3,.48-7.83.54-2.88,0-3.4-3.25-2.18-3.41,5.6-.69,7.18-2.38,9.35-4.38A2.46,2.46,0,0,1,267.88,399.14Z" style="fill:#263238"></path><polygon points="266.18 393.5 263.72 384.49 271.74 383.76 272.94 393.08 266.18 393.5" style="opacity:0.1"></polygon><path d="M291.93,287h-9.47a52.71,52.71,0,0,0-3,13.18c-.5,6.74,12.46,1.75,12.46,1.75l1.14-9.23Z" style="fill:#1BB1DC"></path><path d="M291.93,287h-9.47a52.71,52.71,0,0,0-3,13.18c-.5,6.74,12.46,1.75,12.46,1.75l1.14-9.23Z" style="opacity:0.1"></path><path d="M286.43,287c2.63,13.81-2.44,13.1-2.44,13.1l2.87,2,5.21-1.28,1-8.12-1.14-5.7Z" style="opacity:0.1"></path><path d="M310.82,286.15s9.64,16.13,8,29.6-14.12,20.6-62-2.35c0,0-9.82,10.17-26.12,53.74l-8.31-2.5s9.39-50.36,17.79-64.69,45.73,2.5,48.56-.33c2.52-2.51.33-12.47.33-12.47Z" style="fill:#1BB1DC"></path><path d="M251.32,317.92l-2.62-2s-9.23,5-4.64,19.23h0a167.81,167.81,0,0,1,8.15-15.24Z" style="opacity:0.2"></path><path d="M291.32,326.64c-8.7-2.08-20-6.26-34.54-13.24,0,0-11.23.15-12,8.5s19,66.15,19,66.15l9.1-.79s-5.36-57.62-6.61-60.62Z" style="fill:#1BB1DC"></path><path d="M291.32,326.64c-8.7-2.08-20-6.26-34.54-13.24,0,0-11.23.15-12,8.5s19,66.15,19,66.15l9.1-.79s-5.36-57.62-6.61-60.62Z" style="opacity:0.1"></path><path d="M256.78,313.4a18.7,18.7,0,0,0-3.85.55,81,81,0,0,0,20.31,12.69h18.08C282.62,324.56,271.35,320.38,256.78,313.4Z" style="opacity:0.1"></path><polygon points="273.95 385.76 274.2 389.5 263.6 390.33 262.09 386.77 273.95 385.76" style="fill:#1BB1DC"></polygon><polygon points="273.95 385.76 274.2 389.5 263.6 390.33 262.09 386.77 273.95 385.76" style="fill:#fff;opacity:0.30000000000000004"></polygon><path d="M269.21,270l-10.7,6-7.16-.35a1.81,1.81,0,0,0-1.6.83l-2.05,3.2a1.8,1.8,0,0,0-.2,1.5l.05.15a1.78,1.78,0,0,0,2.14,1.22l3.12-.75,6.21-1.19L274.21,274Z" style="fill:#b97964"></path><path d="M267.11,270.38a7.26,7.26,0,0,1,4.67,5.67s7.8-2.71,9.16-7.07,5-25.88-.88-25.92S277.37,268.82,267.11,270.38Z" style="fill:#263238"></path><path d="M267.11,270.38a7.26,7.26,0,0,1,4.67,5.67s7.8-2.71,9.16-7.07,5-25.88-.88-25.92S277.37,268.82,267.11,270.38Z" style="fill:#fff;opacity:0.6000000000000001"></path><path d="M265.12,270.71a20.24,20.24,0,0,1,4.56,6.83l4.12-2s-1.66-4.69-5-6.59Z" style="fill:#263238"></path><path d="M265.12,270.71a20.24,20.24,0,0,1,4.56,6.83l4.12-2s-1.66-4.69-5-6.59Z" style="fill:#fff;opacity:0.7000000000000001"></path><path d="M281.68,288a149.1,149.1,0,0,0,30.47-.89,60.88,60.88,0,0,1-1-25.49c2.49-14,15.63-22.26-17-21.69-4.73.08-18.73-.55-17.12,9.42C278.77,260,281.68,288,281.68,288Z" style="fill:#263238"></path><path d="M281.68,288a149.1,149.1,0,0,0,30.47-.89,60.88,60.88,0,0,1-1-25.49c2.49-14,15.63-22.26-17-21.69-4.73.08-18.73-.55-17.12,9.42C278.77,260,281.68,288,281.68,288Z" style="fill:#fff;opacity:0.5"></path><path d="M301.13,271.7l-15.23,4.5-6.52-1.14a1.86,1.86,0,0,0-1.8.72l-2.19,3a1.83,1.83,0,0,0-.31,1.52l0,.09a1.84,1.84,0,0,0,2.11,1.4l3.12-.53,6.27-.76L305.84,276Z" style="fill:#b97964"></path><path d="M298.88,271.45a7.41,7.41,0,0,1,4.34,6s8-1.77,9.69-6,6.89-28,1-28.48S309.23,270.6,298.88,271.45Z" style="fill:#263238"></path><path d="M298.88,271.45a7.41,7.41,0,0,1,4.34,6s8-1.77,9.69-6,6.89-28,1-28.48S309.23,270.6,298.88,271.45Z" style="fill:#fff;opacity:0.6000000000000001"></path><path d="M296.61,271.84a18.75,18.75,0,0,1,4.52,6.83l4.2-1.2s-1.72-5-4.94-7.16Z" style="fill:#263238"></path><path d="M296.61,271.84a18.75,18.75,0,0,1,4.52,6.83l4.2-1.2s-1.72-5-4.94-7.16Z" style="fill:#fff;opacity:0.7000000000000001"></path><path d="M300.45,210.84s-4.56-9.11,2.43-7.92,2.85,19.32,9.28,21.8C312.16,224.72,304.73,226.57,300.45,210.84Z" style="fill:#263238"></path><path d="M299.14,207a17.15,17.15,0,0,0,1.31,3.83,30.39,30.39,0,0,0,4,9.34c1.05-3.31,1.47-8.72-1.64-11.82C301.62,207.16,300.37,207.48,299.14,207Z" style="opacity:0.6000000000000001"></path><path d="M298,208.9s2.28-2.58,4.25.73-1.28,4.1-1.28,4.1Z" style="fill:#1BB1DC"></path><path d="M299.64,226.19s1,3.73,3.7,1.17S301.18,227.48,299.64,226.19Z" style="fill:#263238"></path><path d="M294.17,239.64s-6.54-2.25-9.32,3.3l2.58,1L286,245.7l5.33,3.87,9.1-3.12-.5-1.29,4.38-1.19S305.48,237.57,294.17,239.64Z" style="fill:#263238"></path><path d="M294.17,239.64s-6.54-2.25-9.32,3.3l2.58,1L286,245.7l5.33,3.87,9.1-3.12-.5-1.29,4.38-1.19S305.48,237.57,294.17,239.64Z" style="fill:#fff;opacity:0.7000000000000001"></path><path d="M294.36,240.15s-10.89-2.39-3.24,8.46C291.12,248.61,312.9,239.93,294.36,240.15Z" style="fill:#b97964"></path><path d="M298.69,227.66l-7.41,7.27c.66,3.17-.26,4.81-1.28,5.66v2.35a11,11,0,0,0,3.86.35,33.12,33.12,0,0,0,7.12-.86C297.75,239.85,298.21,232,298.69,227.66Z" style="fill:#b97964"></path><path d="M291.35,238.3a7.89,7.89,0,0,0-.07-3.37l6.61-6.49.65.75S297.21,237.46,291.35,238.3Z" style="opacity:0.1"></path><path d="M299.3,218c.55,7.13.93,10.13-2.14,14.25-4.61,6.21-13.49,5.31-16.15-1.51-2.4-6.14-2.89-16.77,3.64-20.54a9.76,9.76,0,0,1,13.34,3.5A9.6,9.6,0,0,1,299.3,218Z" style="fill:#b97964"></path><path d="M284.75,225.24a15.8,15.8,0,0,1-1.54,4,2.53,2.53,0,0,0,2.1.11Z" style="fill:#a24e3f"></path><path d="M290.15,220.37a.5.5,0,0,0,.12-.08.29.29,0,0,0,0-.4h0a3.31,3.31,0,0,0-3-.74.3.3,0,0,0-.18.36.28.28,0,0,0,.35.18,2.77,2.77,0,0,1,2.44.63A.28.28,0,0,0,290.15,220.37Z" style="fill:#2e353a"></path><path d="M279.61,221.35a.2.2,0,0,0,.12-.08,2.75,2.75,0,0,1,2.32-1,.29.29,0,0,0,.33-.24h0a.28.28,0,0,0-.25-.32,3.32,3.32,0,0,0-2.83,1.15.28.28,0,0,0,0,.4.28.28,0,0,0,.3.06Z" style="fill:#2e353a"></path><path d="M288.69,223.72c.08.58-.17,1.08-.55,1.14s-.74-.37-.81-1,.16-1.08.53-1.13S288.6,223.14,288.69,223.72Z" style="fill:#2e353a"></path><path d="M282.18,224.62c.08.58-.16,1.08-.54,1.14s-.74-.37-.82-.95.16-1.08.53-1.13S282.1,224,282.18,224.62Z" style="fill:#2e353a"></path><path d="M281.52,223.68l-1.43-.2S281,224.46,281.52,223.68Z" style="fill:#2e353a"></path><path d="M288,222.78l-1.44-.2S287.45,223.56,288,222.78Z" style="fill:#2e353a"></path><path d="M289.14,229.56a4.51,4.51,0,0,0,.29-.63.14.14,0,0,0-.07-.18h0a.15.15,0,0,0-.18.09,3.73,3.73,0,0,1-2.46,2.34.15.15,0,0,0-.1.17.14.14,0,0,0,.16.11A3.91,3.91,0,0,0,289.14,229.56Z" style="fill:#263238"></path><path d="M299.64,226.19s-3.9-2.13-4.15-8-9.18-7.08-14.69-3.63c0,0-1.57-5.19,4.19-5.65,0,0,8.42-6.16,15.31.73C306.39,215.72,299.64,226.19,299.64,226.19Z" style="fill:#263238"></path><path d="M301.75,223.39a5.25,5.25,0,0,1-2.07,3.41c-1.49,1.07-2.86-.11-3-1.84-.1-1.56.55-4,2.3-4.38a2.36,2.36,0,0,1,2.76,1.88A2.43,2.43,0,0,1,301.75,223.39Z" style="fill:#b97964"></path><path d="M281.28,213.64s-1.75,3.92-3.22,0S279.82,214.52,281.28,213.64Z" style="fill:#263238"></path></g><g id="freepik--Device--inject-3"><path d="M285.78,281H234.69a1.5,1.5,0,0,0,0,3h51.09a1.5,1.5,0,0,0,0-3Z" style="fill:#1BB1DC"></path><path d="M285.78,281H234.69a1.5,1.5,0,0,0,0,3h51.09a1.5,1.5,0,0,0,0-3Z" style="fill:#fff;opacity:0.30000000000000004"></path><path d="M256.71,284a1.5,1.5,0,1,1,0-3h29.07a1.5,1.5,0,0,1,0,3Z" style="fill:#fff;opacity:0.2"></path><path d="M235.51,283.1h18.78a.71.71,0,0,0,.67-1l-10.3-29.43a2,2,0,0,0-1.91-1.35H224a.7.7,0,0,0-.67.94l10.3,29.43A2,2,0,0,0,235.51,283.1Z" style="fill:#1BB1DC"></path><path d="M234.6,283.1h18.79a.72.72,0,0,0,.67-1l-10.3-29.43a2,2,0,0,0-1.91-1.35H223.06a.71.71,0,0,0-.67.94l10.3,29.43A2,2,0,0,0,234.6,283.1Z" style="fill:#1BB1DC"></path><path d="M234.6,283.1h18.79a.72.72,0,0,0,.67-1l-10.3-29.43a2,2,0,0,0-1.91-1.35H223.06a.71.71,0,0,0-.67.94l10.3,29.43A2,2,0,0,0,234.6,283.1Z" style="fill:#fff;opacity:0.5"></path><path d="M236.7,267.23c.24,1.13,1,2,1.74,2s1.12-.91.88-2-1-2-1.75-2S236.46,266.1,236.7,267.23Z" style="fill:#fff"></path></g><g id="freepik--Plant--inject-3"><path d="M198.2,266.42s-6.42-5.95-3-8.53-4-6.55-1.35-8.48-1.3-6.93,1-7.76-.56-3.75,1.11-5.16c2.2-1.84,1.75,7.58,3.94,7.74s-2.16,5.35.56,6-1,6.54,1.56,6.65S202.22,263.39,198.2,266.42Z" style="fill:#1BB1DC"></path><path d="M198.2,266.42s-6.42-5.95-3-8.53-4-6.55-1.35-8.48-1.3-6.93,1-7.76-.56-3.75,1.11-5.16c2.2-1.84,1.75,7.58,3.94,7.74s-2.16,5.35.56,6-1,6.54,1.56,6.65S202.22,263.39,198.2,266.42Z" style="fill:#fff;opacity:0.5"></path><g style="opacity:0.2"><path d="M196.06,238.91q1,5.85,1.61,11.75c.53,4.82,1.64,10.91.13,15.65-.16.5.63.72.8.22,1.56-4.88.44-10.92-.1-15.87-.44-4-1-8-1.64-12-.08-.53-.88-.3-.8.22Z"></path></g><path d="M196.06,265.38s-6.62-3.19-4.55-6.09-4.83-4.27-3.17-6.48-2.76-5.24-1.11-6.48-1.88-4.22-.37-4.41c2.41-.3,3.27,5.65,5.06,5.24s-.41,4.82,1.93,4.69.83,5.49,2.9,5S198.54,262,196.06,265.38Z" style="fill:#1BB1DC"></path><g style="opacity:0.2"><path d="M188.24,244.73c3.17,6.5,6.38,13.55,7.42,20.76.08.53.87.3.8-.22-1.06-7.26-4.31-14.4-7.51-21-.23-.48-.95-.06-.71.42Z"></path></g><path d="M201.62,265.38s6.62-3.19,4.55-6.09,4.83-4.27,3.17-6.48,2.76-5.24,1.11-6.48,1.38-2.36.38-4.41-3.28,5.65-5.07,5.24.41,4.82-1.93,4.69-.83,5.49-2.9,5S199.14,262,201.62,265.38Z" style="fill:#1BB1DC"></path><path d="M201.62,265.38s6.62-3.19,4.55-6.09,4.83-4.27,3.17-6.48,2.76-5.24,1.11-6.48,1.38-2.36.38-4.41-3.28,5.65-5.07,5.24.41,4.82-1.93,4.69-.83,5.49-2.9,5S199.14,262,201.62,265.38Z" style="fill:#fff;opacity:0.2"></path><g style="opacity:0.2"><path d="M209.38,244.73c-3.17,6.5-6.38,13.55-7.42,20.76-.08.53-.87.3-.8-.22,1.05-7.26,4.31-14.4,7.51-21,.23-.48,1-.06.71.42Z"></path></g><polygon points="205.12 284.19 193.35 284.19 191.14 264.37 207.32 264.37 205.12 284.19" style="fill:#1BB1DC"></polygon><polygon points="205.12 284.19 193.35 284.19 191.14 264.37 207.32 264.37 205.12 284.19" style="fill:#fff;opacity:0.30000000000000004"></polygon></g><g id="freepik--Desk--inject-3"><path d="M235.08,408.73h0a2.47,2.47,0,0,1-2.46-2.23l-.78-8.24V285.32h6.48V398.26l-.78,8.24A2.47,2.47,0,0,1,235.08,408.73Z" style="fill:#263238"></path><path d="M235.08,408.73h0a2.47,2.47,0,0,1-2.46-2.23l-.78-8.24V285.32h6.48V398.26l-.78,8.24A2.47,2.47,0,0,1,235.08,408.73Z" style="fill:#fff;opacity:0.30000000000000004"></path><rect x="231.84" y="286.42" width="6.49" height="7.97" style="opacity:0.1"></rect><path d="M240.62,399.4v-2.57A1.82,1.82,0,0,0,238.8,395h-7.44a1.82,1.82,0,0,0-1.82,1.82v2.57l-18.31,5a5.12,5.12,0,0,0-3.76,4.93h55.22a5.12,5.12,0,0,0-3.76-4.93Z" style="fill:#1BB1DC"></path><path d="M240.62,399.34v-2.51a2.11,2.11,0,0,0,0-.25h-11a2.11,2.11,0,0,0,0,.25v2.51Z" style="opacity:0.1"></path><path d="M240.62,399.4v-2.57A1.82,1.82,0,0,0,238.8,395h-7.44a1.82,1.82,0,0,0-1.82,1.82v2.57l-18.31,5a5.12,5.12,0,0,0-3.76,4.93h55.22a5.12,5.12,0,0,0-3.76-4.93Z" style="opacity:0.2"></path><rect x="164.78" y="287.81" width="140.59" height="3.79" style="fill:#263238"></rect><rect x="164.78" y="287.81" width="140.59" height="3.79" style="fill:#fff;opacity:0.30000000000000004"></rect><rect x="235.27" y="287.81" width="70.1" height="3.79" style="opacity:0.2"></rect><rect x="156.3" y="284.01" width="157.55" height="3.79" style="fill:#1BB1DC"></rect><rect x="226.79" y="284.01" width="87.06" height="3.79" style="opacity:0.30000000000000004"></rect></g></svg>